<svg xmlns="http://www.w3.org/2000/svg" xmlns:xlink="http://www.w3.org/1999/xlink" width="500" zoomAndPan="magnify" viewBox="0 0 375 374.999991" height="500" preserveAspectRatio="xMidYMid meet" version="1.0"><defs><g/><clipPath id="58368b5504"><path d="M 331 231 L 338 231 L 338 238.476562 L 331 238.476562 Z M 331 231 " clip-rule="nonzero"/></clipPath><clipPath id="d0570d04bb"><path d="M 328 224.226562 L 334 224.226562 L 334 230 L 328 230 Z M 328 224.226562 " clip-rule="nonzero"/></clipPath><clipPath id="d26b14685c"><path d="M 323.148438 227 L 327 227 L 327 231 L 323.148438 231 Z M 323.148438 227 " clip-rule="nonzero"/></clipPath><clipPath id="62de3f6eb2"><path d="M 325 224.226562 L 328 224.226562 L 328 227 L 325 227 Z M 325 224.226562 " clip-rule="nonzero"/></clipPath><clipPath id="7de6618648"><path d="M 328 224.226562 L 333 224.226562 L 333 230 L 328 230 Z M 328 224.226562 " clip-rule="nonzero"/></clipPath><clipPath id="ec41fd97b5"><path d="M 323.148438 228 L 326 228 L 326 231 L 323.148438 231 Z M 323.148438 228 " clip-rule="nonzero"/></clipPath><clipPath id="22a42a1f9a"><path d="M 325 224.226562 L 327 224.226562 L 327 226 L 325 226 Z M 325 224.226562 " clip-rule="nonzero"/></clipPath><clipPath id="4a190d3ea8"><path d="M 304.492188 224.289062 L 318.742188 224.289062 L 318.742188 238.539062 L 304.492188 238.539062 Z M 304.492188 224.289062 " clip-rule="nonzero"/></clipPath><clipPath id="3cadb050a8"><path d="M 285.46875 224.351562 L 299.71875 224.351562 L 299.71875 238.601562 L 285.46875 238.601562 Z M 285.46875 224.351562 " clip-rule="nonzero"/></clipPath><clipPath id="2108490676"><path d="M 41 213.050781 L 45 213.050781 L 45 216.800781 L 41 216.800781 Z M 41 213.050781 " clip-rule="nonzero"/></clipPath><clipPath id="1eceb2939e"><path d="M 0.28125 1 L 6 1 L 6 8 L 0.28125 8 Z M 0.28125 1 " clip-rule="nonzero"/></clipPath><clipPath id="e71a28f2ee"><rect x="0" width="47" y="0" height="10"/></clipPath></defs><g clip-path="url(#58368b5504)"><path fill="#14b8a6" d="M 337.769531 235.019531 C 337.773438 236.773438 336.351562 238.199219 334.597656 238.203125 C 332.839844 238.207031 331.414062 236.785156 331.410156 235.03125 C 331.40625 233.277344 332.828125 231.851562 334.582031 231.847656 C 336.339844 231.84375 337.765625 233.261719 337.769531 235.019531 M 337.28125 235.019531 C 337.28125 233.53125 336.070312 232.328125 334.585938 232.332031 C 333.097656 232.335938 331.894531 233.542969 331.898438 235.03125 C 331.898438 236.519531 333.109375 237.722656 334.59375 237.71875 C 336.082031 237.714844 337.285156 236.507812 337.28125 235.019531 Z M 337.28125 235.019531 " fill-opacity="1" fill-rule="nonzero"/></g><g clip-path="url(#d0570d04bb)"><path fill="#14b8a6" d="M 333.445312 227.007812 C 333.449219 228.480469 332.257812 229.679688 330.785156 229.683594 C 329.3125 229.683594 328.117188 228.492188 328.113281 227.019531 C 328.109375 225.546875 329.300781 224.351562 330.773438 224.347656 C 332.246094 224.34375 333.445312 225.535156 333.445312 227.007812 M 332.960938 227.011719 C 332.957031 225.804688 331.980469 224.832031 330.773438 224.832031 C 329.570312 224.835938 328.597656 225.816406 328.597656 227.019531 C 328.601562 228.222656 329.578125 229.199219 330.785156 229.195312 C 331.988281 229.195312 332.964844 228.214844 332.960938 227.011719 Z M 332.960938 227.011719 " fill-opacity="1" fill-rule="nonzero"/></g><path fill="#14b8a6" d="M 330.582031 232.089844 C 330.585938 233.238281 329.582031 234.136719 328.386719 234.140625 C 327.191406 234.144531 326.1875 233.246094 326.183594 232.097656 C 326.183594 230.949219 327.183594 230.050781 328.378906 230.046875 C 329.574219 230.046875 330.582031 230.941406 330.582031 232.089844 M 330.097656 232.089844 C 330.097656 231.246094 329.347656 230.53125 328.378906 230.53125 C 327.414062 230.535156 326.667969 231.253906 326.667969 232.097656 C 326.671875 232.941406 327.421875 233.65625 328.386719 233.65625 C 329.351562 233.652344 330.101562 232.933594 330.097656 232.089844 Z M 330.097656 232.089844 " fill-opacity="1" fill-rule="nonzero"/><path fill="#14b8a6" d="M 328.949219 235.96875 C 328.949219 236.636719 328.40625 237.183594 327.738281 237.183594 C 327.066406 237.1875 326.519531 236.644531 326.519531 235.972656 C 326.519531 235.300781 327.0625 234.757812 327.730469 234.753906 C 328.402344 234.753906 328.949219 235.296875 328.949219 235.96875 M 328.464844 235.96875 C 328.464844 235.566406 328.136719 235.238281 327.734375 235.242188 C 327.328125 235.242188 327.003906 235.570312 327.003906 235.972656 C 327.003906 236.375 327.332031 236.699219 327.734375 236.699219 C 328.140625 236.699219 328.464844 236.371094 328.464844 235.96875 Z M 328.464844 235.96875 " fill-opacity="1" fill-rule="nonzero"/><g clip-path="url(#d26b14685c)"><path fill="#14b8a6" d="M 326.214844 229.390625 C 326.167969 230.222656 325.449219 230.859375 324.617188 230.8125 C 323.785156 230.761719 323.148438 230.046875 323.195312 229.210938 C 323.246094 228.378906 323.960938 227.742188 324.792969 227.792969 C 325.628906 227.839844 326.265625 228.554688 326.214844 229.390625 M 325.730469 229.359375 C 325.765625 228.792969 325.332031 228.308594 324.765625 228.277344 C 324.199219 228.242188 323.714844 228.675781 323.679688 229.242188 C 323.648438 229.808594 324.078125 230.292969 324.644531 230.328125 C 325.210938 230.359375 325.699219 229.925781 325.730469 229.359375 Z M 325.730469 229.359375 " fill-opacity="1" fill-rule="nonzero"/></g><g clip-path="url(#62de3f6eb2)"><path fill="#14b8a6" d="M 327.046875 225.199219 C 327.019531 225.691406 326.597656 226.066406 326.105469 226.039062 C 325.613281 226.007812 325.238281 225.585938 325.265625 225.09375 C 325.296875 224.605469 325.71875 224.226562 326.210938 224.257812 C 326.699219 224.285156 327.074219 224.707031 327.046875 225.199219 M 326.5625 225.171875 C 326.574219 224.945312 326.40625 224.753906 326.179688 224.742188 C 325.957031 224.726562 325.765625 224.898438 325.75 225.125 C 325.738281 225.347656 325.910156 225.539062 326.132812 225.554688 C 326.359375 225.566406 326.550781 225.394531 326.5625 225.171875 Z M 326.5625 225.171875 " fill-opacity="1" fill-rule="nonzero"/></g><path fill="#14b8a6" d="M 337.226562 228.375 C 337.230469 229.207031 336.558594 229.882812 335.726562 229.882812 C 334.894531 229.886719 334.21875 229.214844 334.214844 228.382812 C 334.214844 227.550781 334.886719 226.875 335.71875 226.871094 C 336.550781 226.871094 337.226562 227.542969 337.226562 228.375 M 336.742188 228.375 C 336.742188 227.8125 336.285156 227.355469 335.71875 227.355469 C 335.15625 227.359375 334.699219 227.816406 334.703125 228.378906 C 334.703125 228.945312 335.160156 229.398438 335.722656 229.398438 C 336.289062 229.398438 336.746094 228.941406 336.742188 228.375 Z M 336.742188 228.375 " fill-opacity="1" fill-rule="nonzero"/><path fill="#14b8a6" d="M 329.304688 227.027344 C 329.246094 226.644531 329.347656 226.285156 329.613281 225.949219 C 329.621094 225.941406 329.625 225.933594 329.632812 225.925781 C 329.886719 225.671875 330.21875 225.554688 330.636719 225.574219 C 330.769531 225.582031 330.871094 225.699219 330.867188 225.832031 C 330.859375 225.964844 330.746094 226.066406 330.609375 226.0625 C 330.339844 226.046875 330.128906 226.117188 329.976562 226.269531 L 329.996094 226.246094 C 329.816406 226.476562 329.746094 226.710938 329.785156 226.957031 C 329.804688 227.089844 329.714844 227.210938 329.582031 227.230469 C 329.449219 227.253906 329.324219 227.160156 329.304688 227.027344 Z M 329.304688 227.027344 " fill-opacity="1" fill-rule="nonzero"/><path fill="#14b8a6" d="M 327.085938 232.167969 C 327.027344 231.878906 327.113281 231.585938 327.339844 231.292969 C 327.339844 231.289062 327.34375 231.289062 327.34375 231.285156 C 327.558594 231.027344 327.828125 230.882812 328.148438 230.847656 C 328.28125 230.832031 328.402344 230.929688 328.417969 231.0625 C 328.429688 231.195312 328.335938 231.316406 328.203125 231.332031 C 328.011719 231.351562 327.847656 231.441406 327.71875 231.597656 L 327.722656 231.589844 C 327.585938 231.765625 327.535156 231.925781 327.5625 232.074219 C 327.589844 232.203125 327.503906 232.332031 327.371094 232.359375 C 327.238281 232.382812 327.113281 232.296875 327.085938 232.167969 Z M 327.085938 232.167969 " fill-opacity="1" fill-rule="nonzero"/><path fill="#14b8a6" d="M 325.238281 230.027344 C 325.128906 230.097656 325.039062 230.140625 324.976562 230.164062 L 324.984375 230.160156 C 324.898438 230.195312 324.8125 230.214844 324.730469 230.210938 C 324.566406 230.210938 324.394531 230.140625 324.214844 229.996094 C 324.109375 229.914062 324.089844 229.761719 324.175781 229.65625 C 324.257812 229.550781 324.410156 229.53125 324.515625 229.617188 C 324.609375 229.691406 324.679688 229.726562 324.730469 229.726562 C 324.734375 229.726562 324.734375 229.726562 324.734375 229.726562 C 324.753906 229.726562 324.777344 229.722656 324.800781 229.710938 C 324.804688 229.710938 324.808594 229.710938 324.808594 229.707031 C 324.84375 229.695312 324.902344 229.664062 324.988281 229.613281 C 325.101562 229.542969 325.25 229.582031 325.320312 229.695312 C 325.390625 229.8125 325.351562 229.960938 325.238281 230.027344 Z M 325.238281 230.027344 " fill-opacity="1" fill-rule="nonzero"/><path fill="#14b8a6" d="M 332.511719 234.65625 C 332.515625 234.488281 332.59375 234.289062 332.75 234.058594 C 332.75 234.054688 332.75 234.054688 332.75 234.054688 C 332.898438 233.835938 333.0625 233.65625 333.246094 233.515625 L 333.242188 233.519531 C 333.558594 233.273438 333.914062 233.199219 334.320312 233.300781 C 334.449219 233.332031 334.527344 233.464844 334.496094 233.59375 C 334.460938 233.726562 334.332031 233.804688 334.199219 233.769531 C 333.953125 233.707031 333.730469 233.75 333.539062 233.902344 C 333.398438 234.007812 333.269531 234.148438 333.152344 234.324219 C 333.050781 234.480469 333 234.59375 332.996094 234.671875 C 332.992188 234.804688 332.882812 234.910156 332.746094 234.90625 C 332.613281 234.902344 332.507812 234.792969 332.511719 234.65625 Z M 332.511719 234.65625 " fill-opacity="1" fill-rule="nonzero"/><path fill="#14b8a6" d="M 335.832031 228.800781 C 335.921875 228.773438 335.972656 228.753906 335.992188 228.746094 C 335.992188 228.746094 335.988281 228.75 335.980469 228.753906 C 335.988281 228.75 335.996094 228.746094 336 228.742188 C 336.027344 228.730469 336.054688 228.714844 336.074219 228.695312 C 336.074219 228.695312 336.074219 228.695312 336.078125 228.695312 C 336.105469 228.671875 336.125 228.628906 336.144531 228.5625 C 336.179688 228.433594 336.316406 228.355469 336.445312 228.394531 C 336.574219 228.429688 336.648438 228.5625 336.613281 228.691406 C 336.566406 228.855469 336.488281 228.984375 336.382812 229.070312 L 336.386719 229.066406 C 336.332031 229.113281 336.273438 229.152344 336.207031 229.183594 L 336.226562 229.171875 C 336.214844 229.179688 336.203125 229.183594 336.191406 229.191406 C 336.152344 229.207031 336.082031 229.230469 335.976562 229.261719 C 335.851562 229.304688 335.714844 229.230469 335.671875 229.105469 C 335.632812 228.976562 335.707031 228.839844 335.832031 228.800781 Z M 335.832031 228.800781 " fill-opacity="1" fill-rule="nonzero"/><g clip-path="url(#7de6618648)"><path fill="#25c19b" d="M 330.539062 225.582031 C 330.570312 225.582031 330.601562 225.582031 330.636719 225.582031 C 330.765625 225.589844 330.867188 225.699219 330.859375 225.832031 C 330.851562 225.957031 330.75 226.054688 330.625 226.054688 C 330.621094 226.054688 330.617188 226.054688 330.613281 226.054688 C 330.589844 226.050781 330.566406 226.050781 330.542969 226.050781 C 330.308594 226.050781 330.121094 226.117188 329.980469 226.253906 C 329.808594 226.480469 329.742188 226.714844 329.777344 226.957031 C 329.796875 227.085938 329.707031 227.207031 329.582031 227.226562 C 329.570312 227.226562 329.554688 227.226562 329.542969 227.226562 C 329.429688 227.226562 329.332031 227.144531 329.3125 227.027344 C 329.253906 226.648438 329.355469 226.289062 329.621094 225.953125 C 329.625 225.945312 329.632812 225.9375 329.636719 225.933594 C 329.867188 225.699219 330.167969 225.582031 330.539062 225.582031 Z M 330.78125 224.824219 C 330.777344 224.824219 330.777344 224.824219 330.773438 224.824219 C 329.566406 224.828125 328.589844 225.8125 328.589844 227.019531 C 328.59375 228.226562 329.574219 229.203125 330.78125 229.203125 C 330.78125 229.203125 330.78125 229.203125 330.785156 229.203125 C 331.992188 229.203125 332.972656 228.21875 332.96875 227.011719 C 332.964844 225.804688 331.988281 224.824219 330.78125 224.824219 Z M 330.78125 224.824219 " fill-opacity="1" fill-rule="nonzero"/></g><path fill="#25c19b" d="M 333.976562 233.265625 C 334.085938 233.265625 334.199219 233.277344 334.316406 233.308594 C 334.441406 233.339844 334.519531 233.46875 334.488281 233.59375 C 334.460938 233.699219 334.363281 233.769531 334.261719 233.769531 C 334.242188 233.769531 334.222656 233.769531 334.203125 233.765625 C 334.128906 233.746094 334.054688 233.734375 333.988281 233.734375 C 333.820312 233.734375 333.671875 233.789062 333.535156 233.894531 C 333.535156 233.894531 333.535156 233.898438 333.53125 233.898438 C 333.394531 234.003906 333.265625 234.144531 333.148438 234.320312 C 333.042969 234.476562 332.992188 234.59375 332.988281 234.671875 C 332.984375 234.796875 332.882812 234.898438 332.753906 234.898438 C 332.753906 234.898438 332.75 234.898438 332.746094 234.898438 C 332.617188 234.894531 332.515625 234.789062 332.519531 234.65625 C 332.523438 234.492188 332.601562 234.292969 332.753906 234.0625 C 332.753906 234.0625 332.757812 234.058594 332.757812 234.058594 C 332.902344 233.839844 333.066406 233.664062 333.246094 233.527344 C 333.46875 233.351562 333.710938 233.265625 333.976562 233.265625 Z M 334.589844 232.324219 C 334.589844 232.324219 334.585938 232.324219 334.585938 232.324219 C 333.09375 232.328125 331.886719 233.539062 331.890625 235.03125 C 331.890625 236.519531 333.101562 237.726562 334.589844 237.726562 C 334.59375 237.726562 334.59375 237.726562 334.59375 237.726562 C 336.085938 237.722656 337.292969 236.511719 337.289062 235.019531 C 337.289062 233.53125 336.078125 232.324219 334.589844 232.324219 Z M 334.589844 232.324219 " fill-opacity="1" fill-rule="nonzero"/><path fill="#25c19b" d="M 336.378906 228.390625 C 336.398438 228.390625 336.421875 228.394531 336.441406 228.398438 C 336.566406 228.433594 336.640625 228.5625 336.605469 228.6875 C 336.558594 228.855469 336.484375 228.980469 336.378906 229.066406 C 336.328125 229.109375 336.269531 229.144531 336.207031 229.171875 C 336.199219 229.175781 336.195312 229.179688 336.1875 229.183594 C 336.152344 229.199219 336.078125 229.222656 335.976562 229.257812 C 335.953125 229.261719 335.929688 229.265625 335.90625 229.265625 C 335.804688 229.265625 335.710938 229.203125 335.679688 229.101562 C 335.640625 228.976562 335.710938 228.84375 335.835938 228.808594 C 335.917969 228.78125 335.96875 228.761719 335.992188 228.753906 C 335.992188 228.753906 335.992188 228.753906 335.996094 228.753906 C 335.996094 228.753906 336 228.75 336.003906 228.75 C 336.03125 228.734375 336.058594 228.71875 336.078125 228.703125 C 336.078125 228.703125 336.082031 228.699219 336.082031 228.699219 C 336.109375 228.675781 336.132812 228.632812 336.152344 228.5625 C 336.179688 228.460938 336.277344 228.390625 336.378906 228.390625 Z M 335.722656 227.351562 C 335.722656 227.351562 335.722656 227.351562 335.71875 227.351562 C 335.152344 227.351562 334.691406 227.8125 334.695312 228.378906 C 334.695312 228.949219 335.15625 229.40625 335.722656 229.40625 C 336.292969 229.40625 336.75 228.945312 336.75 228.375 C 336.75 227.808594 336.289062 227.351562 335.722656 227.351562 Z M 335.722656 227.351562 " fill-opacity="1" fill-rule="nonzero"/><path fill="#25c19b" d="M 328.175781 230.855469 C 328.292969 230.855469 328.394531 230.941406 328.410156 231.0625 C 328.421875 231.191406 328.332031 231.308594 328.199219 231.324219 C 328.007812 231.34375 327.847656 231.433594 327.714844 231.589844 C 327.578125 231.765625 327.527344 231.929688 327.554688 232.074219 C 327.582031 232.203125 327.496094 232.324219 327.371094 232.351562 C 327.355469 232.355469 327.339844 232.355469 327.324219 232.355469 C 327.214844 232.355469 327.117188 232.277344 327.09375 232.164062 C 327.035156 231.878906 327.121094 231.589844 327.34375 231.296875 C 327.347656 231.296875 327.347656 231.292969 327.351562 231.289062 C 327.5625 231.035156 327.832031 230.890625 328.148438 230.855469 C 328.160156 230.855469 328.167969 230.855469 328.175781 230.855469 Z M 328.382812 230.527344 C 328.382812 230.527344 328.382812 230.527344 328.378906 230.527344 C 327.410156 230.527344 326.660156 231.25 326.660156 232.097656 C 326.664062 232.945312 327.414062 233.664062 328.382812 233.664062 C 328.382812 233.664062 328.386719 233.664062 328.386719 233.664062 C 329.355469 233.660156 330.105469 232.9375 330.105469 232.089844 C 330.105469 231.242188 329.351562 230.527344 328.382812 230.527344 Z M 328.382812 230.527344 " fill-opacity="1" fill-rule="nonzero"/><path fill="#25c19b" d="M 327.734375 235.234375 Z M 327.734375 235.234375 Z M 327.734375 236.707031 Z M 327.734375 235.234375 C 327.328125 235.234375 327 235.566406 327 235.972656 C 327 236.378906 327.328125 236.707031 327.734375 236.707031 C 328.140625 236.703125 328.46875 236.375 328.46875 235.96875 C 328.46875 235.5625 328.140625 235.234375 327.734375 235.234375 Z M 327.734375 236.707031 Z M 327.734375 236.707031 " fill-opacity="1" fill-rule="nonzero"/><g clip-path="url(#ec41fd97b5)"><path fill="#25c19b" d="M 324.363281 229.570312 C 324.417969 229.570312 324.46875 229.585938 324.511719 229.621094 C 324.605469 229.695312 324.679688 229.734375 324.730469 229.734375 C 324.734375 229.734375 324.734375 229.734375 324.734375 229.734375 C 324.734375 229.734375 324.738281 229.734375 324.738281 229.734375 C 324.753906 229.734375 324.777344 229.726562 324.804688 229.71875 C 324.808594 229.714844 324.808594 229.714844 324.8125 229.714844 C 324.847656 229.703125 324.90625 229.667969 324.988281 229.617188 C 325.027344 229.59375 325.070312 229.585938 325.113281 229.585938 C 325.191406 229.585938 325.269531 229.625 325.316406 229.699219 C 325.382812 229.8125 325.347656 229.957031 325.234375 230.023438 C 325.125 230.089844 325.039062 230.136719 324.976562 230.160156 C 324.894531 230.191406 324.816406 230.207031 324.738281 230.207031 C 324.734375 230.207031 324.734375 230.207031 324.730469 230.207031 C 324.566406 230.207031 324.394531 230.132812 324.21875 229.992188 C 324.113281 229.910156 324.097656 229.761719 324.179688 229.660156 C 324.226562 229.601562 324.296875 229.570312 324.363281 229.570312 Z M 324.703125 228.269531 C 324.160156 228.269531 323.707031 228.691406 323.675781 229.242188 C 323.640625 229.808594 324.074219 230.296875 324.644531 230.332031 C 324.664062 230.332031 324.6875 230.332031 324.707031 230.332031 C 325.25 230.332031 325.703125 229.910156 325.738281 229.363281 C 325.769531 228.792969 325.335938 228.304688 324.765625 228.269531 C 324.746094 228.269531 324.726562 228.269531 324.703125 228.269531 Z M 324.703125 228.269531 " fill-opacity="1" fill-rule="nonzero"/></g><g clip-path="url(#22a42a1f9a)"><path fill="#25c19b" d="M 326.15625 224.734375 C 325.941406 224.734375 325.757812 224.902344 325.746094 225.125 C 325.734375 225.351562 325.90625 225.546875 326.132812 225.558594 C 326.140625 225.558594 326.148438 225.558594 326.15625 225.558594 C 326.375 225.558594 326.554688 225.390625 326.570312 225.171875 C 326.582031 224.945312 326.410156 224.75 326.179688 224.734375 C 326.171875 224.734375 326.164062 224.734375 326.15625 224.734375 Z M 326.15625 224.734375 " fill-opacity="1" fill-rule="nonzero"/></g><g clip-path="url(#4a190d3ea8)"><path fill="#14b8a6" d="M 315.652344 225.820312 C 315.511719 225.679688 315.28125 225.683594 315.144531 225.824219 C 315.003906 225.96875 315.003906 226.195312 315.148438 226.335938 L 316.480469 227.636719 L 316.480469 229.332031 C 316.480469 229.363281 316.492188 229.394531 316.515625 229.417969 L 317.75 230.640625 L 317.75 233.335938 C 317.75 233.648438 317.664062 234.664062 316.546875 234.664062 C 315.425781 234.664062 315.339844 233.648438 315.339844 233.335938 L 315.339844 231.648438 C 315.339844 230.179688 314.519531 229.691406 313.585938 229.539062 L 313.585938 225.011719 C 313.585938 224.613281 313.265625 224.289062 312.863281 224.289062 L 306.519531 224.289062 C 306.121094 224.289062 305.796875 224.613281 305.796875 225.011719 L 305.796875 236.78125 L 304.976562 236.78125 C 304.707031 236.78125 304.492188 236.996094 304.492188 237.261719 L 304.492188 238.152344 C 304.492188 238.214844 304.546875 238.269531 304.613281 238.269531 L 314.769531 238.269531 C 314.835938 238.269531 314.890625 238.214844 314.890625 238.152344 L 314.890625 237.261719 C 314.890625 236.996094 314.675781 236.78125 314.40625 236.78125 L 313.585938 236.78125 L 313.585938 230.273438 C 314.339844 230.421875 314.617188 230.828125 314.617188 231.648438 L 314.617188 233.335938 C 314.617188 234.097656 315.023438 235.386719 316.546875 235.386719 C 318.066406 235.386719 318.472656 234.097656 318.472656 233.335938 L 318.472656 228.726562 C 318.472656 228.632812 318.433594 228.539062 318.363281 228.46875 Z M 312.683594 230.675781 C 312.683594 230.742188 312.628906 230.796875 312.5625 230.796875 L 306.820312 230.796875 C 306.753906 230.796875 306.699219 230.742188 306.699219 230.675781 L 306.699219 225.902344 C 306.699219 225.832031 306.753906 225.78125 306.820312 225.78125 L 312.5625 225.78125 C 312.628906 225.78125 312.679688 225.835938 312.679688 225.902344 L 312.679688 230.675781 Z M 312.683594 230.675781 " fill-opacity="1" fill-rule="nonzero"/></g><g clip-path="url(#3cadb050a8)"><path fill="#14b8a6" d="M 291.691406 233.375 L 290.503906 234.5625 C 290.296875 234.769531 290.203125 235.039062 290.242188 235.328125 L 290.390625 236.523438 C 290.410156 236.679688 290.363281 236.816406 290.25 236.929688 L 289.429688 237.75 C 289.328125 237.851562 289.207031 237.898438 289.0625 237.894531 L 287.867188 237.84375 L 289.082031 236.632812 C 289.121094 236.589844 289.144531 236.53125 289.144531 236.472656 L 289.101562 235.179688 C 289.097656 235.066406 289.007812 234.972656 288.894531 234.972656 L 287.597656 234.929688 C 287.539062 234.925781 287.480469 234.949219 287.4375 234.992188 L 286.226562 236.203125 L 286.179688 235.007812 C 286.171875 234.863281 286.21875 234.742188 286.320312 234.640625 L 287.140625 233.820312 C 287.253906 233.707031 287.390625 233.660156 287.550781 233.679688 L 288.742188 233.832031 C 289.027344 233.867188 289.296875 233.773438 289.507812 233.566406 L 294.855469 228.21875 C 295.0625 228.011719 295.15625 227.742188 295.117188 227.453125 L 294.96875 226.261719 C 294.949219 226.101562 294.996094 225.964844 295.109375 225.851562 L 295.929688 225.03125 C 296.03125 224.929688 296.152344 224.882812 296.296875 224.890625 L 297.492188 224.9375 L 296.277344 226.152344 C 296.238281 226.191406 296.214844 226.25 296.214844 226.308594 L 296.257812 227.605469 C 296.261719 227.71875 296.355469 227.808594 296.464844 227.8125 L 297.761719 227.855469 C 297.820312 227.855469 297.878906 227.832031 297.921875 227.792969 L 299.132812 226.578125 L 299.183594 227.773438 C 299.1875 227.917969 299.140625 228.039062 299.039062 228.140625 L 298.21875 228.960938 C 298.105469 229.074219 297.96875 229.121094 297.8125 229.101562 L 296.617188 228.953125 C 296.328125 228.917969 296.058594 229.007812 295.851562 229.214844 Z M 295.515625 230.578125 L 295.09375 230.578125 L 292.058594 233.613281 L 292.058594 234.035156 L 292.621094 234.21875 C 292.691406 234.242188 292.746094 234.300781 292.765625 234.371094 C 292.824219 234.601562 292.914062 234.820312 293.035156 235.027344 C 293.074219 235.089844 293.074219 235.167969 293.042969 235.234375 L 292.773438 235.761719 L 293.195312 236.183594 L 293.722656 235.914062 C 293.789062 235.882812 293.867188 235.882812 293.929688 235.921875 C 294.136719 236.042969 294.355469 236.132812 294.585938 236.191406 C 294.65625 236.210938 294.714844 236.265625 294.738281 236.335938 L 294.917969 236.898438 L 295.515625 236.898438 L 295.699219 236.335938 C 295.722656 236.265625 295.78125 236.210938 295.851562 236.191406 C 296.082031 236.132812 296.300781 236.042969 296.507812 235.921875 C 296.570312 235.882812 296.648438 235.882812 296.714844 235.914062 L 297.242188 236.183594 L 297.664062 235.761719 L 297.394531 235.234375 C 297.363281 235.167969 297.363281 235.089844 297.402344 235.027344 C 297.523438 234.820312 297.613281 234.601562 297.671875 234.371094 C 297.691406 234.300781 297.746094 234.242188 297.816406 234.21875 L 298.378906 234.035156 L 298.378906 233.441406 L 297.816406 233.257812 C 297.746094 233.234375 297.691406 233.175781 297.671875 233.105469 C 297.613281 232.875 297.523438 232.65625 297.402344 232.449219 C 297.363281 232.386719 297.363281 232.308594 297.394531 232.242188 L 297.664062 231.714844 L 297.242188 231.292969 L 296.714844 231.5625 C 296.648438 231.59375 296.570312 231.59375 296.507812 231.554688 C 296.300781 231.433594 296.082031 231.34375 295.851562 231.285156 C 295.78125 231.265625 295.722656 231.210938 295.699219 231.140625 Z M 289.527344 232.867188 L 289.605469 232.867188 L 293.988281 228.484375 L 293.988281 228.40625 L 293.238281 228.160156 C 293.167969 228.140625 293.113281 228.082031 293.09375 228.011719 C 293.019531 227.714844 292.902344 227.433594 292.746094 227.167969 C 292.707031 227.105469 292.707031 227.027344 292.738281 226.960938 L 293.097656 226.261719 L 292.507812 225.667969 L 291.804688 226.027344 C 291.738281 226.0625 291.660156 226.058594 291.597656 226.019531 C 291.335938 225.863281 291.050781 225.746094 290.753906 225.671875 C 290.683594 225.652344 290.628906 225.601562 290.605469 225.53125 L 290.363281 224.78125 L 289.527344 224.78125 L 289.28125 225.53125 C 289.261719 225.601562 289.203125 225.652344 289.132812 225.671875 C 288.835938 225.746094 288.554688 225.863281 288.289062 226.019531 C 288.226562 226.058594 288.148438 226.0625 288.082031 226.027344 L 287.378906 225.667969 L 286.789062 226.261719 L 287.148438 226.960938 C 287.179688 227.027344 287.179688 227.105469 287.140625 227.167969 C 286.984375 227.433594 286.867188 227.714844 286.792969 228.011719 C 286.773438 228.082031 286.722656 228.140625 286.652344 228.160156 L 285.902344 228.40625 L 285.902344 229.242188 L 286.652344 229.484375 C 286.722656 229.507812 286.773438 229.5625 286.792969 229.636719 C 286.867188 229.929688 286.984375 230.214844 287.140625 230.476562 C 287.179688 230.539062 287.179688 230.617188 287.148438 230.683594 L 286.789062 231.386719 L 287.378906 231.976562 L 288.082031 231.617188 C 288.148438 231.585938 288.226562 231.589844 288.289062 231.625 C 288.554688 231.78125 288.835938 231.898438 289.132812 231.972656 C 289.203125 231.992188 289.261719 232.046875 289.28125 232.117188 Z M 296.5625 229.378906 L 297.757812 229.527344 C 298.046875 229.5625 298.316406 229.46875 298.523438 229.265625 L 299.339844 228.445312 C 299.527344 228.257812 299.621094 228.019531 299.609375 227.757812 L 299.542969 226.074219 C 299.535156 225.886719 299.308594 225.796875 299.175781 225.929688 L 297.683594 227.421875 L 296.679688 227.390625 L 296.648438 226.386719 L 298.140625 224.894531 C 298.273438 224.761719 298.183594 224.535156 298 224.527344 L 296.3125 224.460938 C 296.050781 224.449219 295.8125 224.542969 295.625 224.730469 L 294.808594 225.546875 C 294.601562 225.753906 294.507812 226.027344 294.542969 226.3125 L 294.695312 227.507812 C 294.714844 227.664062 294.667969 227.800781 294.554688 227.914062 L 294.359375 228.109375 C 294.335938 228.082031 294.304688 228.058594 294.265625 228.046875 L 293.480469 227.789062 C 293.402344 227.535156 293.300781 227.289062 293.171875 227.054688 L 293.550781 226.316406 C 293.59375 226.234375 293.578125 226.132812 293.511719 226.066406 L 292.699219 225.257812 C 292.632812 225.191406 292.535156 225.175781 292.453125 225.21875 L 291.710938 225.59375 C 291.480469 225.464844 291.230469 225.363281 290.976562 225.289062 L 290.71875 224.5 C 290.691406 224.410156 290.609375 224.351562 290.515625 224.351562 L 289.371094 224.351562 C 289.277344 224.351562 289.195312 224.410156 289.167969 224.5 L 288.910156 225.289062 C 288.65625 225.363281 288.410156 225.464844 288.175781 225.59375 L 287.4375 225.21875 C 287.355469 225.175781 287.253906 225.191406 287.1875 225.257812 L 286.378906 226.066406 C 286.3125 226.132812 286.296875 226.234375 286.335938 226.316406 L 286.714844 227.054688 C 286.585938 227.289062 286.484375 227.535156 286.410156 227.789062 L 285.621094 228.046875 C 285.53125 228.074219 285.472656 228.15625 285.472656 228.25 L 285.472656 229.394531 C 285.472656 229.488281 285.53125 229.570312 285.621094 229.601562 L 286.410156 229.855469 C 286.484375 230.113281 286.585938 230.359375 286.714844 230.59375 L 286.335938 231.332031 C 286.296875 231.414062 286.3125 231.515625 286.378906 231.578125 L 287.1875 232.390625 C 287.253906 232.457031 287.355469 232.472656 287.4375 232.429688 L 288.175781 232.054688 C 288.410156 232.179688 288.65625 232.285156 288.910156 232.359375 L 289.167969 233.144531 C 289.179688 233.183594 289.203125 233.214844 289.230469 233.242188 C 289.101562 233.367188 288.980469 233.429688 288.796875 233.40625 L 287.601562 233.257812 C 287.3125 233.21875 287.042969 233.3125 286.835938 233.519531 L 286.019531 234.335938 C 285.832031 234.523438 285.738281 234.761719 285.75 235.023438 L 285.816406 236.710938 C 285.824219 236.894531 286.050781 236.984375 286.183594 236.851562 L 287.675781 235.359375 L 288.679688 235.390625 L 288.710938 236.394531 L 287.21875 237.886719 C 287.085938 238.019531 287.175781 238.246094 287.363281 238.253906 L 289.046875 238.320312 C 289.308594 238.332031 289.546875 238.238281 289.734375 238.050781 L 290.550781 237.234375 C 290.757812 237.027344 290.851562 236.757812 290.816406 236.46875 L 290.664062 235.277344 C 290.644531 235.117188 290.691406 234.980469 290.804688 234.867188 L 291.628906 234.042969 L 291.628906 234.191406 C 291.628906 234.285156 291.691406 234.367188 291.777344 234.398438 L 292.378906 234.59375 C 292.4375 234.78125 292.515625 234.964844 292.609375 235.140625 L 292.320312 235.707031 C 292.277344 235.789062 292.292969 235.890625 292.359375 235.953125 L 293.003906 236.597656 C 293.066406 236.664062 293.167969 236.679688 293.25 236.636719 L 293.816406 236.347656 C 293.992188 236.441406 294.175781 236.519531 294.363281 236.578125 L 294.558594 237.179688 C 294.589844 237.265625 294.671875 237.328125 294.765625 237.328125 L 295.671875 237.328125 C 295.765625 237.328125 295.847656 237.265625 295.875 237.179688 L 296.074219 236.574219 C 296.261719 236.519531 296.445312 236.441406 296.621094 236.347656 L 297.1875 236.636719 C 297.269531 236.679688 297.367188 236.664062 297.433594 236.597656 L 298.078125 235.953125 C 298.144531 235.890625 298.160156 235.789062 298.117188 235.707031 L 297.828125 235.140625 C 297.921875 234.964844 298 234.78125 298.058594 234.59375 L 298.660156 234.398438 C 298.746094 234.367188 298.808594 234.285156 298.808594 234.191406 L 298.808594 233.285156 C 298.808594 233.191406 298.746094 233.109375 298.660156 233.082031 L 298.054688 232.882812 C 298 232.695312 297.921875 232.511719 297.828125 232.335938 L 298.117188 231.769531 C 298.160156 231.6875 298.144531 231.589844 298.078125 231.523438 L 297.433594 230.878906 C 297.367188 230.8125 297.269531 230.796875 297.1875 230.839844 L 296.621094 231.128906 C 296.445312 231.035156 296.261719 230.957031 296.074219 230.898438 L 295.875 230.296875 C 295.847656 230.210938 295.765625 230.148438 295.671875 230.148438 L 295.523438 230.148438 L 296.15625 229.519531 C 296.269531 229.40625 296.40625 229.359375 296.5625 229.378906 Z M 295.21875 232.265625 C 294.40625 232.265625 293.746094 232.925781 293.746094 233.738281 C 293.746094 234.550781 294.40625 235.210938 295.21875 235.210938 C 296.03125 235.210938 296.691406 234.550781 296.691406 233.738281 C 296.691406 232.925781 296.03125 232.265625 295.21875 232.265625 Z M 295.21875 235.636719 C 296.265625 235.636719 297.117188 234.785156 297.117188 233.738281 C 297.117188 232.691406 296.265625 231.839844 295.21875 231.839844 C 294.171875 231.839844 293.320312 232.691406 293.320312 233.738281 C 293.320312 234.785156 294.171875 235.636719 295.21875 235.636719 Z M 289.945312 230.734375 C 291 230.734375 291.855469 229.878906 291.855469 228.824219 C 291.855469 227.769531 291 226.910156 289.945312 226.910156 C 288.890625 226.910156 288.03125 227.769531 288.03125 228.824219 C 288.03125 229.878906 288.890625 230.734375 289.945312 230.734375 Z M 289.945312 226.480469 C 288.652344 226.480469 287.601562 227.53125 287.601562 228.824219 C 287.601562 230.113281 288.652344 231.164062 289.945312 231.164062 C 291.234375 231.164062 292.285156 230.113281 292.285156 228.824219 C 292.285156 227.53125 291.234375 226.480469 289.945312 226.480469 Z M 289.945312 226.480469 " fill-opacity="1" fill-rule="evenodd"/></g><path fill="#f5f2ed" d="M 335.445312 214.054688 L 335.445312 215.8125 L 49.976562 215.8125 L 49.976562 214.054688 Z M 335.445312 214.054688 " fill-opacity="1" fill-rule="nonzero"/><g clip-path="url(#2108490676)"><path fill="#f5f2ed" d="M 42.871094 216.820312 C 42.671875 216.820312 42.480469 216.769531 42.292969 216.675781 C 42.109375 216.578125 41.945312 216.445312 41.804688 216.265625 C 41.664062 216.089844 41.554688 215.886719 41.476562 215.65625 C 41.402344 215.425781 41.363281 215.183594 41.363281 214.933594 C 41.363281 214.683594 41.402344 214.445312 41.476562 214.214844 C 41.554688 213.984375 41.664062 213.777344 41.804688 213.601562 C 41.945312 213.425781 42.109375 213.289062 42.292969 213.195312 C 42.480469 213.097656 42.671875 213.050781 42.871094 213.050781 C 43.070312 213.050781 43.265625 213.097656 43.449219 213.195312 C 43.632812 213.289062 43.796875 213.425781 43.9375 213.601562 C 44.078125 213.777344 44.1875 213.984375 44.265625 214.214844 C 44.339844 214.445312 44.378906 214.683594 44.378906 214.933594 C 44.378906 215.183594 44.339844 215.425781 44.265625 215.65625 C 44.1875 215.886719 44.078125 216.089844 43.9375 216.265625 C 43.796875 216.445312 43.632812 216.578125 43.449219 216.675781 C 43.265625 216.769531 43.070312 216.820312 42.871094 216.820312 Z M 42.871094 216.820312 " fill-opacity="1" fill-rule="nonzero"/></g><g fill="#14b8a6" fill-opacity="1"><g transform="translate(35.683596, 200.692312)"><g><path d="M 3.796875 0 L 3.796875 -43.640625 L 32.6875 -43.640625 L 32.6875 -36.03125 L 13.015625 -36.03125 L 13.015625 -25.625 L 30.765625 -25.625 L 30.765625 -18.03125 L 13.015625 -18.03125 L 13.015625 0 Z M 3.796875 0 "/></g></g></g><g fill="#14b8a6" fill-opacity="1"><g transform="translate(70.775814, 200.692312)"><g><path d="M 3.796875 0 L 3.796875 -43.640625 L 13.015625 -43.640625 L 13.015625 -7.609375 L 31.71875 -7.609375 L 31.71875 0 Z M 3.796875 0 "/></g></g></g><g fill="#14b8a6" fill-opacity="1"><g transform="translate(104.823999, 200.692312)"><g><path d="M 3.796875 0 L 3.796875 -43.640625 L 33.203125 -43.640625 L 33.203125 -36.03125 L 13.015625 -36.03125 L 13.015625 -25.625 L 31.6875 -25.625 L 31.6875 -18.03125 L 13.015625 -18.03125 L 13.015625 -7.609375 L 33.28125 -7.609375 L 33.28125 0 Z M 3.796875 0 "/></g></g></g><g fill="#14b8a6" fill-opacity="1"><g transform="translate(141.578151, 200.692312)"><g><path d="M 3.796875 0 L 3.796875 -43.640625 L 33.203125 -43.640625 L 33.203125 -36.03125 L 13.015625 -36.03125 L 13.015625 -25.625 L 31.6875 -25.625 L 31.6875 -18.03125 L 13.015625 -18.03125 L 13.015625 -7.609375 L 33.28125 -7.609375 L 33.28125 0 Z M 3.796875 0 "/></g></g></g><g fill="#14b8a6" fill-opacity="1"><g transform="translate(178.332303, 200.692312)"><g><path d="M 2.125 -36.03125 L 2.125 -43.640625 L 37.96875 -43.640625 L 37.96875 -36.03125 L 24.609375 -36.03125 L 24.609375 0 L 15.484375 0 L 15.484375 -36.03125 Z M 2.125 -36.03125 "/></g></g></g><g fill="#14b8a6" fill-opacity="1"><g transform="translate(218.431608, 200.692312)"><g><path d="M 3.328125 0 L 3.328125 -5.46875 L 25.09375 -36.03125 L 3.28125 -36.03125 L 3.28125 -43.640625 L 36.6875 -43.640625 L 36.6875 -38.15625 L 14.890625 -7.609375 L 36.734375 -7.609375 L 36.734375 0 Z M 3.328125 0 "/></g></g></g><g fill="#14b8a6" fill-opacity="1"><g transform="translate(258.445689, 200.692312)"><g><path d="M 3.796875 0 L 3.796875 -43.640625 L 33.203125 -43.640625 L 33.203125 -36.03125 L 13.015625 -36.03125 L 13.015625 -25.625 L 31.6875 -25.625 L 31.6875 -18.03125 L 13.015625 -18.03125 L 13.015625 -7.609375 L 33.28125 -7.609375 L 33.28125 0 Z M 3.796875 0 "/></g></g></g><g fill="#14b8a6" fill-opacity="1"><g transform="translate(295.19983, 200.692312)"><g><path d="M 40.296875 -43.640625 L 40.296875 0 L 32.328125 0 L 13.34375 -27.46875 L 13.015625 -27.46875 L 13.015625 0 L 3.796875 0 L 3.796875 -43.640625 L 11.890625 -43.640625 L 30.71875 -16.1875 L 31.109375 -16.1875 L 31.109375 -43.640625 Z M 40.296875 -43.640625 "/></g></g></g><g transform="matrix(1, 0, 0, 1, 293, 245)"><g clip-path="url(#e71a28f2ee)"><g clip-path="url(#1eceb2939e)"><g fill="#64748b" fill-opacity="1"><g transform="translate(0.384311, 7.096259)"><g><path d="M 0.5 0 L 0.5 -5.734375 L 1.6875 -5.734375 L 1.6875 -3.578125 L 1.71875 -3.578125 C 1.78125 -3.691406 1.859375 -3.804688 1.953125 -3.921875 C 2.054688 -4.046875 2.1875 -4.144531 2.34375 -4.21875 C 2.507812 -4.300781 2.710938 -4.34375 2.953125 -4.34375 C 3.265625 -4.34375 3.550781 -4.257812 3.8125 -4.09375 C 4.070312 -3.9375 4.28125 -3.691406 4.4375 -3.359375 C 4.601562 -3.035156 4.6875 -2.628906 4.6875 -2.140625 C 4.6875 -1.660156 4.609375 -1.253906 4.453125 -0.921875 C 4.296875 -0.597656 4.085938 -0.351562 3.828125 -0.1875 C 3.566406 -0.0195312 3.269531 0.0625 2.9375 0.0625 C 2.707031 0.0625 2.507812 0.0234375 2.34375 -0.046875 C 2.1875 -0.117188 2.054688 -0.210938 1.953125 -0.328125 C 1.859375 -0.453125 1.78125 -0.570312 1.71875 -0.6875 L 1.671875 -0.6875 L 1.671875 0 Z M 1.65625 -2.140625 C 1.65625 -1.765625 1.734375 -1.457031 1.890625 -1.21875 C 2.054688 -0.988281 2.28125 -0.875 2.5625 -0.875 C 2.851562 -0.875 3.078125 -0.988281 3.234375 -1.21875 C 3.390625 -1.457031 3.46875 -1.765625 3.46875 -2.140625 C 3.46875 -2.515625 3.390625 -2.816406 3.234375 -3.046875 C 3.085938 -3.285156 2.863281 -3.40625 2.5625 -3.40625 C 2.28125 -3.40625 2.054688 -3.289062 1.890625 -3.0625 C 1.734375 -2.832031 1.65625 -2.523438 1.65625 -2.140625 Z M 1.65625 -2.140625 "/></g></g></g></g><g fill="#64748b" fill-opacity="1"><g transform="translate(5.246666, 7.096259)"><g><path d="M 1.171875 1.671875 C 1.003906 1.671875 0.859375 1.65625 0.734375 1.625 C 0.609375 1.59375 0.515625 1.566406 0.453125 1.546875 L 0.71875 0.625 C 0.925781 0.6875 1.101562 0.703125 1.25 0.671875 C 1.394531 0.640625 1.507812 0.523438 1.59375 0.328125 L 1.671875 0.125 L 0.140625 -4.296875 L 1.390625 -4.296875 L 2.28125 -1.140625 L 2.328125 -1.140625 L 3.21875 -4.296875 L 4.484375 -4.296875 L 2.796875 0.484375 C 2.679688 0.828125 2.488281 1.109375 2.21875 1.328125 C 1.957031 1.554688 1.609375 1.671875 1.171875 1.671875 Z M 1.171875 1.671875 "/></g></g></g><g fill="#64748b" fill-opacity="1"><g transform="translate(9.862839, 7.096259)"><g/></g></g><g fill="#64748b" fill-opacity="1"><g transform="translate(11.689727, 7.096259)"><g><path d="M 5.28125 -5.734375 L 5.28125 0 L 4.234375 0 L 1.75 -3.609375 L 1.703125 -3.609375 L 1.703125 0 L 0.5 0 L 0.5 -5.734375 L 1.5625 -5.734375 L 4.03125 -2.125 L 4.078125 -2.125 L 4.078125 -5.734375 Z M 5.28125 -5.734375 "/></g></g></g><g fill="#64748b" fill-opacity="1"><g transform="translate(17.480922, 7.096259)"><g><path d="M 0.5 0 L 0.5 -5.734375 L 4.359375 -5.734375 L 4.359375 -4.734375 L 1.703125 -4.734375 L 1.703125 -3.359375 L 4.15625 -3.359375 L 4.15625 -2.359375 L 1.703125 -2.359375 L 1.703125 -1 L 4.375 -1 L 4.375 0 Z M 0.5 0 "/></g></g></g><g fill="#64748b" fill-opacity="1"><g transform="translate(22.306921, 7.096259)"><g><path d="M 0.28125 -4.734375 L 0.28125 -5.734375 L 4.984375 -5.734375 L 4.984375 -4.734375 L 3.234375 -4.734375 L 3.234375 0 L 2.03125 0 L 2.03125 -4.734375 Z M 0.28125 -4.734375 "/></g></g></g><g fill="#64748b" fill-opacity="1"><g transform="translate(27.572151, 7.096259)"><g/></g></g><g fill="#64748b" fill-opacity="1"><g transform="translate(29.399039, 7.096259)"><g><path d="M 0.5 0 L 0.5 -5.734375 L 4.359375 -5.734375 L 4.359375 -4.734375 L 1.703125 -4.734375 L 1.703125 -3.359375 L 4.15625 -3.359375 L 4.15625 -2.359375 L 1.703125 -2.359375 L 1.703125 -1 L 4.375 -1 L 4.375 0 Z M 0.5 0 "/></g></g></g><g fill="#64748b" fill-opacity="1"><g transform="translate(34.225038, 7.096259)"><g><path d="M 5.546875 -3.71875 L 4.328125 -3.71875 C 4.273438 -4.03125 4.140625 -4.273438 3.921875 -4.453125 C 3.703125 -4.640625 3.425781 -4.734375 3.09375 -4.734375 C 2.644531 -4.734375 2.285156 -4.570312 2.015625 -4.25 C 1.753906 -3.925781 1.625 -3.460938 1.625 -2.859375 C 1.625 -2.253906 1.757812 -1.789062 2.03125 -1.46875 C 2.300781 -1.15625 2.648438 -1 3.078125 -1 C 3.398438 -1 3.671875 -1.082031 3.890625 -1.25 C 4.117188 -1.414062 4.265625 -1.648438 4.328125 -1.953125 L 5.546875 -1.953125 C 5.503906 -1.597656 5.378906 -1.265625 5.171875 -0.953125 C 4.960938 -0.648438 4.679688 -0.398438 4.328125 -0.203125 C 3.972656 -0.015625 3.550781 0.078125 3.0625 0.078125 C 2.550781 0.078125 2.09375 -0.0351562 1.6875 -0.265625 C 1.289062 -0.492188 0.972656 -0.828125 0.734375 -1.265625 C 0.503906 -1.703125 0.390625 -2.234375 0.390625 -2.859375 C 0.390625 -3.484375 0.507812 -4.015625 0.75 -4.453125 C 0.988281 -4.890625 1.304688 -5.222656 1.703125 -5.453125 C 2.109375 -5.691406 2.5625 -5.8125 3.0625 -5.8125 C 3.507812 -5.8125 3.910156 -5.726562 4.265625 -5.5625 C 4.617188 -5.394531 4.90625 -5.15625 5.125 -4.84375 C 5.351562 -4.539062 5.492188 -4.164062 5.546875 -3.71875 Z M 5.546875 -3.71875 "/></g></g></g><g fill="#64748b" fill-opacity="1"><g transform="translate(40.150522, 7.096259)"><g><path d="M 5.765625 -2.859375 C 5.765625 -2.234375 5.644531 -1.703125 5.40625 -1.265625 C 5.164062 -0.828125 4.84375 -0.492188 4.4375 -0.265625 C 4.039062 -0.0351562 3.585938 0.078125 3.078125 0.078125 C 2.566406 0.078125 2.109375 -0.0351562 1.703125 -0.265625 C 1.304688 -0.492188 0.988281 -0.828125 0.75 -1.265625 C 0.507812 -1.710938 0.390625 -2.242188 0.390625 -2.859375 C 0.390625 -3.484375 0.507812 -4.015625 0.75 -4.453125 C 0.988281 -4.890625 1.304688 -5.222656 1.703125 -5.453125 C 2.109375 -5.691406 2.566406 -5.8125 3.078125 -5.8125 C 3.585938 -5.8125 4.039062 -5.691406 4.4375 -5.453125 C 4.84375 -5.222656 5.164062 -4.890625 5.40625 -4.453125 C 5.644531 -4.015625 5.765625 -3.484375 5.765625 -2.859375 Z M 4.53125 -2.859375 C 4.53125 -3.472656 4.394531 -3.9375 4.125 -4.25 C 3.863281 -4.570312 3.515625 -4.734375 3.078125 -4.734375 C 2.640625 -4.734375 2.285156 -4.570312 2.015625 -4.25 C 1.753906 -3.9375 1.625 -3.472656 1.625 -2.859375 C 1.625 -2.253906 1.753906 -1.789062 2.015625 -1.46875 C 2.285156 -1.15625 2.640625 -1 3.078125 -1 C 3.515625 -1 3.863281 -1.15625 4.125 -1.46875 C 4.394531 -1.789062 4.53125 -2.253906 4.53125 -2.859375 Z M 4.53125 -2.859375 "/></g></g></g></g></g></svg>